<svg xmlns="http://www.w3.org/2000/svg" width="376" height="409" fill="none"><path fill="#FFD5A6" d="M227.113 68.64c-34.144-22.648-92.108 11.425-103.325 17.658-29.467-17.8-67.702-45.803-81.226-35.65-23.498 17.636 12.024 143.28-30.424 179.709 32.495 48.11 3.656 129.151 13.395 178.06h333.743c-4.677-7.497-38.249-112.349-38.249-115.155 0-2.806 27.568-16.937 29.381-19.079 1.814-2.142 1.157-15.365.329-19.656 6.426.164 19.656-40.306 19.164-45.426-.493-5.119-11.424-4.127-10.411-6.276 1.014-2.149 4.285-26.219 5.784-37.314-21.599 6.626-42.234-50.695-55.329-58.271 4.041-20.192-3.706-34.986-8.19-40.284-4.583 2.056-8.054 6.711-10.274 11.003-7.383-23.213-67.653-72.115-74.893-72.115-4.577 0-37.357 31.645-30.431 56.37"/><path fill="#fff" d="M129.236 405.076c-3.213-38.307-14.516-84.768-18.279-91.051 7.854-7.433 28.639-23.034 12.139-41.234 13.287-12.709-.286-37.557-21.956-37.271 26.868-22.849-8.954-47.725-32.36-9.425-4.333-15.13-32.565-53.601-44.982 46.36l-.393 70.43 105.831 62.191Z"/><path fill="#D4946F" d="M342.433 408.417H129.286c-1.813-19.492-2.335-23.369-2.335-23.369l-4.684-27.847-8.082-34.272-3.249-8.897s1.35-4.512 8.697-7.404c7.347-2.892 19.214-4.22 13.737 16.287 7.14 1.428 36.722-1.657 39.142-5.184-3.291 5.848-1.863 15.215-1.863 15.215 27.782-4.005 35.8-22.641 42.355-22.42 6.555.222 82.333-11.352 86.881-11.352 1.664 5.983 42.012 100.133 42.548 109.243Z"/><path fill="#D4946F" d="M27.297 320.344c-1.978 31.974-6.59 63.94-1.764 88.073H129.5c-1.171-12.431-12.524-85.838-14.116-81.29-5.426 15.516-62.547 20.764-88.088-6.783Z"/><path fill="#fff" d="M303.84 208.073c-3.491 23.162-19.178 39.085-44.482 41.627-28.868 2.899-42.127-15.63-44.326-41.256-2.049-23.641 16.579-46.203 41.741-46.203s50.902 20.399 47.067 45.832Z"/><path fill="#402223" d="M191.169 187.788a9.482 9.482 0 0 1 3.399 4.234 17.297 17.297 0 0 1 1.385 5.405 24.134 24.134 0 0 1-1.67 10.989 26.639 26.639 0 0 1-29.089 16.422 29.523 29.523 0 0 1-10.468-3.891 30.68 30.68 0 0 1-4.212-3.163 39.554 39.554 0 0 1-.957-.872 11.163 11.163 0 0 1-.914-.906 52.724 52.724 0 0 1-1.671-1.928 31.644 31.644 0 0 1-2.856-4.199 26.966 26.966 0 0 1-2.049-4.741c1.677.152 3.345.39 4.998.714.807.107 1.564.257 2.321.386.385.057.714.15 1.106.221.393.072.714.115 1.114.165.714.114 1.428.235 2.142.371.714.135 1.428.185 2.071.3 1.342.25 2.656.314 3.898.507 2.265.206 4.541.249 6.812.128a24.89 24.89 0 0 0 5.555-.978 24.478 24.478 0 0 0 5.091-2.206 32.874 32.874 0 0 0 5.205-3.742 39.174 39.174 0 0 0 4.998-5.412c.393-.514.785-1.071 1.15-1.635l.557-.878.506-.914a14.763 14.763 0 0 0 1.578-4.377ZM313.008 130.331a10.465 10.465 0 0 1 3.635 3.013c.489.618.938 1.267 1.342 1.943.391.673.746 1.367 1.064 2.077a23.782 23.782 0 0 1 1.963 9.011 25.204 25.204 0 0 1-1.577 9.468 22.493 22.493 0 0 1-6.127 9.004c-.378.328-.764.649-1.149.964-.386.314-.85.592-1.278.878a19.034 19.034 0 0 1-2.764 1.485c-.242.107-.478.214-.714.314l-.756.25c-.507.164-1.007.328-1.521.464a25.253 25.253 0 0 1-3.092.507 35.365 35.365 0 0 1-3.02 0c-.993-.043-1.914-.271-2.856-.457-.943-.186-1.742-.528-2.585-.821-.843-.293-1.564-.714-2.321-1.107l-.556-.292-.515-.336-.999-.714-.971-.714c-.307-.243-.586-.521-.871-.778a29.416 29.416 0 0 1-1.643-1.607c-.514-.55-.963-1.164-1.428-1.756a23.615 23.615 0 0 1-2.284-3.82 21.43 21.43 0 0 1-1.478-4.284c1.479.022 2.957.122 4.426.3.714.035 1.364.121 2.028.178.336 0 .643.079.957.121.314.043.636.043.957.058.621.042 1.228.099 1.806.164.579.064 1.157 0 1.707.071l.807.043h1.885l.342-.043a9.625 9.625 0 0 0 4.027-.935 13.193 13.193 0 0 0 2.057-1.514 18.464 18.464 0 0 0 2.706-2.984 50.094 50.094 0 0 0 3.041-4.756 87.278 87.278 0 0 0 3.071-5.905c.521-1.078.985-2.199 1.471-3.413a27.16 27.16 0 0 0 1.213-4.077ZM285.219 184.175c1.778 2.613 7.54 25.462-23.498 20.656-7.04 15.452-26.94 17.194-32.345-1.792-3.877 29.517 32.802 24.277 34.915 7.297 8.933 1.485 21.049 2.207 26.205-3.513 6.647-7.397 7.482-21.277-5.277-22.648Z"/><path fill="#6C2A28" d="M186.164 62.215a28.006 28.006 0 0 1-1.849-10.86 42.383 42.383 0 0 1 1.763-11.103 76.951 76.951 0 0 1 9.611-20.364 93.942 93.942 0 0 1 6.733-9.146 85.645 85.645 0 0 1 3.87-4.313 41.106 41.106 0 0 1 4.62-4.184c.522-.39 1.068-.748 1.635-1.071a9.524 9.524 0 0 1 1.171-.571l.4-.15c.135-.05.25-.093.464-.15a7.145 7.145 0 0 1 1.385-.264 7.23 7.23 0 0 1 1.492 0l.529.071.428.079c.442.098.879.222 1.307.37.622.216 1.23.472 1.82.765a48.982 48.982 0 0 1 5.284 3.17c3.22 2.1 6.233 4.284 9.196 6.476 5.912 4.441 11.582 9.09 17.137 13.88a335.939 335.939 0 0 1 16.194 14.916 220.118 220.118 0 0 1 15.108 16.301 109.678 109.678 0 0 1 6.855 9.14c1.078 1.62 2.142 3.312 3.063 5.112a36.438 36.438 0 0 1 2.549 5.905l-10.518-.893a37.687 37.687 0 0 1 5.041-7.497 27.037 27.037 0 0 1 3.506-3.356 21.165 21.165 0 0 1 4.463-2.742l3.948-1.756 2.756 3.299a36.222 36.222 0 0 1 3.57 5.183 47.953 47.953 0 0 1 2.663 5.37 55.266 55.266 0 0 1 3.399 11.295 58.533 58.533 0 0 1 1.014 11.674 64.103 64.103 0 0 1-1.235 11.567l-2.742-6.062a18.888 18.888 0 0 1 3.049 2.257 30.49 30.49 0 0 1 2.277 2.285c1.364 1.52 2.542 3.034 3.649 4.548 2.206 3.027 4.148 6.04 6.048 9.053 3.784 6.012 7.34 11.974 11.081 17.701 1.871 2.856 3.784 5.655 5.777 8.318a74.224 74.224 0 0 0 6.261 7.44 27.771 27.771 0 0 0 6.784 5.319c.982.519 2.044.874 3.141 1.05a6.535 6.535 0 0 0 2.742-.214l8.518-2.385-1.185 8.625c-1.15 8.361-2.292 16.737-3.57 25.148a427.35 427.35 0 0 1-1 6.34 130.042 130.042 0 0 1-.578 3.249c-.107.557-.214 1.114-.357 1.735l-.114.486c-.05.185-.072.307-.143.549l-.1.336-.05.164-.107.3c-.072.2-.172.443-.243.607a4.725 4.725 0 0 0 .407-1.4c.049-.335.064-.675.043-1.013a5.218 5.218 0 0 0-.536-2.043 4.643 4.643 0 0 0-.228-.407 4.583 4.583 0 0 0-.214-.321 4.56 4.56 0 0 0-1.293-1.221 2.39 2.39 0 0 0-.478-.25c.1.036.528.15.985.25.943.214 2.107.457 3.385.828a16.58 16.58 0 0 1 4.419 1.921c1 .636 1.882 1.441 2.607 2.378a9.035 9.035 0 0 1 1.835 5.005v.893c0 .499-.058.885-.1 1.256a29.148 29.148 0 0 1-.307 1.949 62.679 62.679 0 0 1-.757 3.399 139.14 139.14 0 0 1-1.771 6.376 210.026 210.026 0 0 1-4.163 12.338c-1.513 4.07-3.156 8.112-5.098 12.139a60.202 60.202 0 0 1-3.363 6.147 24.996 24.996 0 0 1-2.463 3.292 13.088 13.088 0 0 1-2.085 1.892c-.57.41-1.186.752-1.835 1.021a7.674 7.674 0 0 1-3.077.578l5.755-6.79c.221 1.2.342 2.192.449 3.206.107 1.014.186 1.978.257 2.956a88.68 88.68 0 0 1 .222 5.876 50.905 50.905 0 0 1-.293 6.234 21.082 21.082 0 0 1-.3 1.842 12.145 12.145 0 0 1-.8 2.535l-.235.471a5.336 5.336 0 0 1-.307.528 7.58 7.58 0 0 1-.443.614 6.118 6.118 0 0 1-.55.621 10.17 10.17 0 0 1-1.164.979 19.79 19.79 0 0 1-1.428.978c-1.727 1.106-3.327 2.035-4.941 2.984l-4.798 2.792c-3.177 1.835-6.333 3.656-9.389 5.519a63.646 63.646 0 0 0-4.341 2.914l-1.878 1.363c-.271.193-.5.393-.593.436-.092.043-.035 0 .1-.193.15-.226.279-.465.386-.714.134-.303.237-.619.307-.942 0-.115.05-.236.064-.357.015-.122.043-.3.05-.45.007-.15 0-.386 0-.393v-.728.193c0 .157.064.342.107.549l.279 1.25.628 2.613 1.342 5.298c1.835 7.09 3.742 14.188 5.663 21.285l5.84 21.27c1.942 7.093 3.908 14.18 5.898 21.263l6.062 21.221a658.31 658.31 0 0 0 3.156 10.567 458.845 458.845 0 0 0 1.671 5.255 43.314 43.314 0 0 0 1.942 5.156 43.614 43.614 0 0 1-2.521-4.927 231.57 231.57 0 0 1-2.235-5.062 5030.792 5030.792 0 0 1-4.284-10.211c-2.792-6.826-5.476-13.687-8.139-20.556a3006.415 3006.415 0 0 1-7.905-20.649c-2.613-6.891-5.14-13.809-7.682-20.707a1498.197 1498.197 0 0 1-7.505-20.835l-1.827-5.262-.9-2.706-.443-1.428c-.071-.236-.15-.5-.228-.793l-.057-.214-.072-.3-.064-.307V294.054c0-.164-.036-.328-.05-.492v-.729c0-.15 0-.392.057-.535.057-.143.05-.293.079-.436.096-.437.237-.863.421-1.271.196-.452.435-.885.714-1.292.308-.433.647-.844 1.014-1.228.463-.49.957-.95 1.478-1.378a27.45 27.45 0 0 1 2.585-1.885c1.685-1.086 3.341-2.035 4.955-3.021 3.227-1.97 6.426-3.819 9.632-5.662l4.748-2.749c1.557-.906 3.142-1.835 4.505-2.713.329-.214.657-.428.843-.571.064-.043.178-.157-.1.107-.05.043-.271.293-.329.357-.088.106-.17.218-.242.336l-.136.228a1.446 1.446 0 0 0-.078.164c-.122.286-.036.093 0-.1.035-.192.099-.535.135-.878.164-1.589.233-3.186.207-4.784 0-1.699-.078-3.434-.193-5.148a56.191 56.191 0 0 0-.221-2.534c-.093-.829-.2-1.65-.307-2.257l5.755-6.79a3.764 3.764 0 0 0-1.542.264 2.25 2.25 0 0 0-.457.243c-.079.064.071-.05.235-.25.482-.56.919-1.157 1.307-1.785a49.25 49.25 0 0 0 2.699-4.962c1.714-3.57 3.256-7.355 4.684-11.182a197.4 197.4 0 0 0 3.934-11.645c.586-1.95 1.143-3.906 1.621-5.827.236-.956.457-1.899.621-2.777.079-.436.15-.857.193-1.178v-.322.1a1.967 1.967 0 0 0 0 .307c.067.378.221.735.45 1.043.076.103.165.197.264.278a6.195 6.195 0 0 0-1.385-.535c-.714-.221-1.65-.414-2.771-.664-.578-.136-1.171-.264-2.07-.564a8.946 8.946 0 0 1-1.921-.886 6.678 6.678 0 0 1-1.885-1.742c-.093-.135-.178-.25-.271-.407a6.206 6.206 0 0 1-.871-4.127c.049-.338.123-.672.221-.999.085-.265.185-.525.3-.779a1.687 1.687 0 0 0-.1.236l-.036.114v-.043s.036-.15.057-.214l.065-.278c.092-.407.185-.886.278-1.364.186-.964.357-1.971.528-2.985.343-2.027.657-4.098.972-6.162 1.249-8.282 2.384-16.629 3.57-24.99l7.332 6.24a18.01 18.01 0 0 1-7.632.607 21.496 21.496 0 0 1-6.783-2.192 38.69 38.69 0 0 1-9.74-7.497 85.334 85.334 0 0 1-7.247-8.568c-2.192-2.934-4.234-5.919-6.19-8.911-3.913-5.983-7.519-12.038-11.189-17.85-1.835-2.906-3.684-5.769-5.605-8.39-.957-1.306-1.935-2.549-2.906-3.634a13.047 13.047 0 0 0-2.563-2.313l-3.57-2.021.792-4.048a52.644 52.644 0 0 0 1.014-9.475 47.08 47.08 0 0 0-.814-9.404 43.865 43.865 0 0 0-2.692-8.954 36.625 36.625 0 0 0-2.042-4.112 25.149 25.149 0 0 0-2.413-3.535l6.705 1.528a12.448 12.448 0 0 0-4.063 3.213 26.344 26.344 0 0 0-3.477 5.206l-6.312 12.138-4.206-13.06a35.833 35.833 0 0 0-4.284-8.182 98.176 98.176 0 0 0-6.133-8.176 209.08 209.08 0 0 0-14.259-15.408c-5.048-4.998-10.289-9.768-15.658-14.416-5.37-4.648-10.875-9.154-16.472-13.388-2.857-2.099-5.713-4.17-8.569-5.969a37.526 37.526 0 0 0-4.105-2.213l-.671-.279c-.079 0-.065 0 0 0H216.145c.271.024.544.024.814 0a3.65 3.65 0 0 0 .714-.135l.143-.05.079-.036c.05 0 0-.036-.057 0a4.46 4.46 0 0 0-.714.321 29.881 29.881 0 0 0-3.778 2.535 67.69 67.69 0 0 0-3.912 3.206 97.324 97.324 0 0 0-7.369 7.29c-4.648 5.141-8.918 10.71-12.002 16.994a44.389 44.389 0 0 0-3.571 9.831 28.668 28.668 0 0 0-.328 10.61ZM129.236 405.076c-.657-3.842-1.292-7.669-2.028-11.481-.735-3.813-1.428-7.619-2.227-11.425-1.593-7.582-3.249-15.137-5.07-22.648-1.821-7.511-3.727-14.994-5.791-22.406a458.882 458.882 0 0 0-3.27-11.017 147.295 147.295 0 0 0-1.813-5.348 56.782 56.782 0 0 0-.986-2.527c-.164-.372-.335-.822-.499-1.129-.079-.157-.165-.357-.236-.485-.072-.129-.129-.207-.186-.314l-1.663-3.142 2.42-2.392c1.571-1.549 3.056-2.927 4.491-4.334 1.435-1.407 2.806-2.799 4.084-4.227a35.951 35.951 0 0 0 6.169-8.875 13.764 13.764 0 0 0 1.186-8.797c-.614-2.791-2.335-5.576-4.72-8.118l-3.57-3.777 3.82-3.799a11.348 11.348 0 0 0 3.463-8.296 17.85 17.85 0 0 0-3.206-9.632 22.016 22.016 0 0 0-7.983-7.141 21.792 21.792 0 0 0-10.374-2.52l-15.709.164 11.946-10.182a28.029 28.029 0 0 0 5.341-5.833 12.857 12.857 0 0 0 2.299-6.098 6.43 6.43 0 0 0-1.585-4.812 8.867 8.867 0 0 0-5.127-2.671 15.182 15.182 0 0 0-6.99.557 25.613 25.613 0 0 0-7.033 3.57 38.17 38.17 0 0 0-6.269 5.648 60.019 60.019 0 0 0-5.327 6.998l-5.89 9.01-2.592-10.16a29.622 29.622 0 0 0-1.964-5.241 38.902 38.902 0 0 0-2.856-4.998 25.58 25.58 0 0 0-3.57-4.284 11.528 11.528 0 0 0-3.97-2.592 5.536 5.536 0 0 0-3.798-.036 11.049 11.049 0 0 0-3.956 2.785c-2.535 2.663-4.64 6.262-6.426 9.996a103.892 103.892 0 0 0-4.605 11.781c-1.35 4.049-2.528 8.176-3.627 12.339-1.1 4.162-2.142 8.368-3.042 12.588-.9 4.219-1.814 8.468-2.713 12.723.193-4.341.514-8.668.892-13.009.379-4.341.928-8.654 1.55-12.981 1.292-8.639 2.991-17.272 6.09-25.704a56.825 56.825 0 0 1 2.742-6.283 32.896 32.896 0 0 1 3.906-6.048 18.178 18.178 0 0 1 6.297-4.998 13.074 13.074 0 0 1 8.911-.664c2.63.78 5.065 2.111 7.14 3.905a33.857 33.857 0 0 1 5.127 5.377 44.448 44.448 0 0 1 3.898 6.04 38.65 38.65 0 0 1 2.92 6.769l-8.482-1.149a54.065 54.065 0 0 1 13.523-15.966 34.203 34.203 0 0 1 9.832-5.355 25.819 25.819 0 0 1 11.903-1.221c2.137.306 4.215.936 6.162 1.871a18.57 18.57 0 0 1 5.434 4.027 17.329 17.329 0 0 1 3.62 5.962 18.018 18.018 0 0 1 1.006 6.797 20.87 20.87 0 0 1-1.278 6.355 26.298 26.298 0 0 1-2.72 5.398 39.136 39.136 0 0 1-7.462 8.325l-3.755-9.996a32.416 32.416 0 0 1 15.886 3.827 33.354 33.354 0 0 1 12.053 10.968 28.38 28.38 0 0 1 4.955 15.872 22.683 22.683 0 0 1-1.878 8.761 22.054 22.054 0 0 1-5.19 7.311l.271-7.575a34.277 34.277 0 0 1 4.284 5.99 25.066 25.066 0 0 1 2.699 7.355c.501 2.645.516 5.36.043 8.011a26.505 26.505 0 0 1-2.478 7.276 44.705 44.705 0 0 1-8.304 11.074 96.929 96.929 0 0 1-4.748 4.434l-4.627 4.027.757-5.534.5.971c.143.308.243.557.364.843.25.571.4 1.042.6 1.571.35 1.007.657 1.992.942 2.963.571 1.942 1.086 3.87 1.564 5.791a246.426 246.426 0 0 1 2.592 11.509c1.571 7.676 2.856 15.38 4.013 23.106a364.355 364.355 0 0 1 2.713 23.248c.321 3.884.621 7.776.828 11.667.207 3.891.357 7.768.357 11.66Z"/><path fill="#912322" d="M99.12 216.534c-4.999 6.126-9.876 12.231-14.624 18.407-4.748 6.176-9.318 12.417-13.566 18.764-2.142 3.185-4.191 6.369-6.076 9.632a100.693 100.693 0 0 0-5.17 9.811 47.11 47.11 0 0 0-3.434 9.746 21.473 21.473 0 0 0-.557 4.441 9.889 9.889 0 0 0 .535 3.492c.32.891.83 1.702 1.493 2.378a10.186 10.186 0 0 0 2.799 1.92 29.368 29.368 0 0 0 8.932 2.299c3.529.367 7.078.501 10.624.4 1.828-.043 3.663-.128 5.52-.264.923-.067 1.851-.14 2.784-.221l1.428-.122 1.243-.128a25.059 25.059 0 0 0 8.668-2.414 10.172 10.172 0 0 0 2.785-2.042 5.918 5.918 0 0 0 1.356-2.306c.266-.898.295-1.85.086-2.763a9.099 9.099 0 0 0-1.428-3.142 14.341 14.341 0 0 0-6.655-4.919l-19.478-7.533 19.842-2.542a17.13 17.13 0 0 0 9.318-4.655 12.372 12.372 0 0 0 2.913-4.106 4.91 4.91 0 0 0 .107-3.913 8.002 8.002 0 0 0-3.648-3.42 25.284 25.284 0 0 0-5.926-2.142 76.295 76.295 0 0 0-13.452-1.635 54.726 54.726 0 0 1 13.866-1.906 26.85 26.85 0 0 1 7.361.985c1.313.379 2.573.924 3.749 1.621a11.55 11.55 0 0 1 3.377 3.041 10.718 10.718 0 0 1 1.928 4.506 12.723 12.723 0 0 1-.093 4.748 19.57 19.57 0 0 1-3.656 7.776 25.57 25.57 0 0 1-13.723 9.239l.364-10.082a24.468 24.468 0 0 1 12.852 7.433 19.948 19.948 0 0 1 4.142 7.104 17.896 17.896 0 0 1-3.035 16.972 23.222 23.222 0 0 1-6.198 5.398 30.475 30.475 0 0 1-6.797 3.028 44.704 44.704 0 0 1-6.769 1.549c-.557.086-1.114.157-1.67.229l-1.521.171c-1.014.105-2.033.198-3.056.278-2.047.172-4.11.293-6.19.365-4.27.185-8.548.013-12.789-.514a51.815 51.815 0 0 1-6.683-1.293 32.842 32.842 0 0 1-6.876-2.649 23.85 23.85 0 0 1-6.576-4.998 19.579 19.579 0 0 1-4.284-7.704 23.448 23.448 0 0 1-.814-8.104c.173-2.42.606-4.814 1.292-7.14a59.114 59.114 0 0 1 5.248-11.988 106 106 0 0 1 6.826-10.332c2.456-3.242 4.998-6.384 7.669-9.375a197.163 197.163 0 0 1 16.936-16.829 175.878 175.878 0 0 1 18.7-14.552Z"/><path fill="#B07365" d="M177.417 63.821a95.707 95.707 0 0 1 10.768-.171c.907 0 1.813.071 2.72.121.907.05 1.821.086 2.728.214l5.469.714c1.821.322 3.634.715 5.476 1.114l1.378.307c.457.122.907.264 1.357.393l2.728.821c.899.307 1.827.543 2.713.921l2.685 1.1c.892.385 1.792.714 2.677 1.164l2.621 1.37 2.663 1.364c.871.51 1.756 1.012 2.656 1.507.885.514 1.828.964 2.699 1.542a99.249 99.249 0 0 1 2.599 1.785 23.711 23.711 0 0 1 4.641 4.349c.354.4.685.819.992 1.256.293.45.586.907.857 1.378.55.928 1.057 1.885 1.521 2.856.464.971.778 2.042 1.121 3.063.157.522.329 1.036.478 1.55l.215.778.15.807c.437 2.134.612 4.314.521 6.49 0 .543-.072 1.093-.114 1.628-.028.539-.09 1.076-.186 1.607a40.25 40.25 0 0 1-.785 3.191c-.172.522-.315 1.036-.522 1.55a19.655 19.655 0 0 1-.714 1.528 19.695 19.695 0 0 1-1.785 2.913 1.427 1.427 0 0 1-1.963.293l-.093-.072-.086-.071a42.041 42.041 0 0 1-2.385-2.235 27.246 27.246 0 0 1-1.021-1.05l-1.049-.985c-.664-.65-1.3-1.264-1.871-1.871s-1.257-1.156-1.828-1.713c-1.071-1.136-2.292-2.142-3.256-3.142-.121-.128-.25-.25-.364-.378l-.407-.357c-.271-.236-.521-.479-.778-.714l-.714-.714a9.781 9.781 0 0 0-.714-.714 27.542 27.542 0 0 1-4.934-6.29 45.397 45.397 0 0 1-1.092-1.85c-.364-.629-.829-1.2-1.257-1.8-.428-.6-.885-1.192-1.349-1.777-.465-.586-1.05-1.064-1.593-1.585l-1.649-1.557c-.578-.493-1.2-.95-1.799-1.428l-1.814-1.47c-.6-.508-1.285-.908-1.928-1.372-2.549-1.913-5.341-3.57-8.182-5.312l-4.413-2.392c-.714-.428-1.499-.778-2.271-1.142-.771-.364-1.535-.714-2.306-1.107l-2.327-1.128c-.786-.364-1.586-.664-2.385-1.007-1.593-.714-3.206-1.364-4.827-2.106h-.079a1.092 1.092 0 0 1 .407-2.085v-.079ZM134.313 78.187c2.963 1.171 5.897 2.4 8.775 3.742 1.428.65 2.856 1.342 4.284 2.02l4.284 2.142c2.82 1.485 5.634 3 8.39 4.67 1.356.864 2.749 1.663 4.091 2.585 1.342.92 2.692 1.813 4.02 2.77 1.328.957 2.72 1.87 4.148 2.792 1.428.92 2.856 1.849 4.284 2.891.714.536 1.35 1.093 1.992 1.678a15.339 15.339 0 0 1 1.8 1.893 20.813 20.813 0 0 1 2.856 4.512c.385.835.764 1.657 1.085 2.521.321.864.593 1.792.835 2.699.122.456.25.899.343 1.363.093.464.171.957.243 1.428.136.964.264 1.907.307 2.856a23.584 23.584 0 0 1-.528 5.948 17.359 17.359 0 0 1-2.385 5.784 1.479 1.479 0 0 1-2.035.457l-.064-.043c-3.663-2.299-6.255-4.077-8.711-5.712a68.086 68.086 0 0 1-6.576-4.934 21.943 21.943 0 0 1-2.714-2.856c-.378-.521-.785-1.064-1.164-1.635a22.122 22.122 0 0 1-1.042-1.793l-2.056-3.812a37.886 37.886 0 0 0-2.407-3.62 322.32 322.32 0 0 0-5.59-6.983c-.928-1.2-1.9-2.364-2.856-3.57-.957-1.207-1.914-2.4-2.921-3.57-3.905-4.791-7.989-9.525-11.909-14.538a1.104 1.104 0 0 1 .567-1.75c.235-.066.484-.053.711.037l-.057.028Z"/><path fill="#6C2A28" d="M24.99 408.546a94.105 94.105 0 0 1-2.499-11.196 138.63 138.63 0 0 1-1.428-11.424c-.314-3.834-.514-7.64-.642-11.46-.129-3.82-.215-7.64-.172-11.424.043-7.619.243-15.216.429-22.77l.135-5.662.179-5.641c.11-3.755.193-7.502.25-11.238.1-7.469.043-14.902-.343-22.242a186.955 186.955 0 0 0-2.028-21.67 109.361 109.361 0 0 0-5.133-20.406 88.71 88.71 0 0 0-4.035-9.361 67.256 67.256 0 0 0-5.155-8.568L0 229.101l6.176-5.713a33.61 33.61 0 0 0 4.534-5.083 43.77 43.77 0 0 0 3.72-6.077 68.985 68.985 0 0 0 5.177-14.28c2.599-10.21 3.763-21.242 4.284-32.402.521-11.16.493-22.569.278-34.058-.214-11.488-.607-23.127-.607-34.965 0-5.92.107-11.903.493-18.029.386-6.126.992-12.388 2.856-19.185a36.764 36.764 0 0 1 4.791-10.832 25.535 25.535 0 0 1 2.256-2.856 22.138 22.138 0 0 1 2.964-2.642 19.936 19.936 0 0 1 7.49-3.32 24.906 24.906 0 0 1 6.833-.507 36.64 36.64 0 0 1 5.762.835 60.767 60.767 0 0 1 9.746 3.128c3.006 1.22 5.84 2.57 8.568 3.97 2.728 1.4 5.427 2.856 8.018 4.398 5.198 3.035 10.197 6.226 15.145 9.454 4.948 3.227 9.753 6.504 14.565 9.753l14.345 9.646-6.983-.128 6.183-3.092a296.815 296.815 0 0 1 6.341-3.027 254.458 254.458 0 0 1 12.938-5.548 164.026 164.026 0 0 1 27.025-8.204 114.518 114.518 0 0 1 14.052-2.085 83.211 83.211 0 0 1 14.28.093c9.453.828 18.914 3.991 26.218 9.825h.036a.57.57 0 0 1-.671.921 43.739 43.739 0 0 0-12.303-5.512 55.617 55.617 0 0 0-13.394-1.921 79.142 79.142 0 0 0-13.567.842 112.46 112.46 0 0 0-13.33 2.806 176.164 176.164 0 0 0-25.64 9.282c-8.333 3.706-16.423 7.955-24.341 12.474l-.45.257-.457-.271c-9.96-6.012-19.685-12.352-29.581-18.4-4.948-3.02-9.925-5.976-14.995-8.747a132.461 132.461 0 0 0-15.615-7.39 51.634 51.634 0 0 0-8.161-2.463 19.873 19.873 0 0 0-8.211-.2 9.47 9.47 0 0 0-3.57 1.6 11.975 11.975 0 0 0-2.7 2.927 26.12 26.12 0 0 0-3.205 7.69c-1.428 5.498-1.942 11.274-2.264 17.022-.32 5.748-.328 11.552-.278 17.343.121 11.589.578 23.191.807 34.808.228 11.617.228 23.263-.429 34.901-.657 11.638-1.992 23.291-5.062 34.622a79.113 79.113 0 0 1-6.355 16.423 48.054 48.054 0 0 1-10.91 13.923l.179-1.321a82.608 82.608 0 0 1 9.867 20.628 119.233 119.233 0 0 1 4.799 22.298c1.842 15.102 1.527 30.324.65 45.419-.879 15.094-2.464 30.138-3.457 45.189-.492 7.526-.828 15.059-.756 22.585-.001 7.52.668 15.025 1.999 22.427a.57.57 0 0 1-1.107.271l.014-.057Z"/><path fill="#FFA19C" d="M84.967 102.285C55.914 70.39 53.951 64.878 42.534 64.878c-8.569 0 1.492 101.39 10.71 101.39s15.415-7.44 16.372-12.039c.957-4.598 9.218-10.231 9.218-10.231l2.756-2.949-16.522-27.133 15.144-.2 17.5 11.774s-6.861-20.706-12.745-23.205Z"/><path fill="#6C2A28" d="M60.02 75.56a58.423 58.423 0 0 1 5.526 3.605l2.65 1.942 2.555 2.035a143.653 143.653 0 0 1 9.668 8.718c1.55 1.521 3.042 3.092 4.541 4.677 1.5 1.585 2.92 3.235 4.334 4.934a87.88 87.88 0 0 1 4.142 5.341c.666.952 1.33 1.973 1.992 3.063l.507.885c.164.293.35.664.514.993.164.328.364.792.535 1.199.043.115.086.2.136.336l.15.45c.093.3.186.607.264.914l4.998 18.942-16.85-11.574a16.934 16.934 0 0 0-2.221-1.271c-.864-.421-1.8-.807-2.763-1.164a30.842 30.842 0 0 0-5.89-1.627 19.243 19.243 0 0 0-2.707-.336 9.078 9.078 0 0 0-1.92.093c-.186 0-.315.043-.272 0 .14-.112.27-.234.393-.364.225-.258.404-.552.528-.871.107-.286.107-.493.071-.515-.035-.021-.114.515 0 1.221.2.868.462 1.72.786 2.549a48.33 48.33 0 0 0 2.927 5.984c2.35 4.105 5.098 8.304 7.911 12.509l3.17 4.741-3.826 1.978a256.874 256.874 0 0 0-4.22 2.142 24.94 24.94 0 0 0-3.62 2.306 8.274 8.274 0 0 0-2.578 3.064c-.114.328-.285.649-.407.999-.121.35-.242.714-.314 1.1-.071.385-.157.771-.2 1.171l-.128 1.235v.143a.413.413 0 0 1-.668.309.413.413 0 0 1-.153-.252 12.855 12.855 0 0 1-.322-5.077 10.712 10.712 0 0 1 2.085-4.698 22.049 22.049 0 0 1 3.57-3.62c1.278-1.078 2.62-2.056 3.963-3.02l-.1.978a124.1 124.1 0 0 1-9.89-11.938 49.805 49.805 0 0 1-4.076-6.669 24.06 24.06 0 0 1-1.485-3.692 11.7 11.7 0 0 1-.543-4.077 6.004 6.004 0 0 1 1.757-3.962 7.903 7.903 0 0 1 3.791-1.914 20.953 20.953 0 0 1 7.99.05 38.227 38.227 0 0 1 7.554 2.214 28.895 28.895 0 0 1 6.912 3.855l-1.264.786a12.916 12.916 0 0 0-1.15-2.714 45.434 45.434 0 0 0-1.578-2.699 115.592 115.592 0 0 0-3.498-5.248c-2.428-3.448-4.998-6.826-7.576-10.16-2.578-3.334-5.284-6.597-7.968-9.875a195.55 195.55 0 0 0-8.347-9.525.421.421 0 0 1 .514-.657l.1.058Z"/></svg>