<svg xmlns="http://www.w3.org/2000/svg" fill="none" viewBox="0 0 512 512">
  <circle cx="256" cy="256" r="256" fill="#fff"/>
  <g fill="#111827" clip-path="url(#a)">
    <path d="M244.598 226.233c-.909-2.321-2.523-4.238-4.541-5.651l-3.835-2.624-.908 4.541c-.202 1.211-.706 2.422-1.312 3.532l-.504.807-.505.807c-.302.505-.706 1.009-1.009 1.413-1.412 1.816-2.926 3.532-4.641 5.045a31.509 31.509 0 0 1-4.743 3.431c-1.413.807-2.926 1.514-4.44 1.917a20.345 20.345 0 0 1-4.944.909c-2.119.1-4.238.1-6.357-.101-.505-.101-1.11-.101-1.716-.202-.605-.101-1.413-.101-2.119-.303-.404-.101-.706-.101-1.11-.202-.404-.101-.605-.101-.908-.101-.706-.101-1.514-.302-2.22-.403-.303 0-.605-.101-1.009-.101l-.404-.101c-.302-.101-.504-.101-.807-.101l-.605-.101c-.606-.101-1.11-.202-1.716-.303-1.715-.302-3.532-.605-5.247-.706l-4.541-.404 1.413 4.339c.605 1.817 1.413 3.633 2.321 5.348a37.298 37.298 0 0 0 3.128 4.642c.605.706 1.211 1.413 1.816 2.018.303.404.707.707 1.11 1.11.303.303.707.606 1.009.908a31.272 31.272 0 0 0 4.642 3.532c3.532 2.22 7.568 3.633 11.604 4.339 1.615.303 3.229.404 4.844.404 12.209 0 23.208-7.467 27.85-18.769a27.951 27.951 0 0 0 2.018-12.512c-.202-2.22-.706-4.339-1.614-6.357ZM370.226 170.936a2732.7 2732.7 0 0 0-1.211-2.422c-.504-.807-1.009-1.514-1.513-2.22-1.211-1.614-2.826-3.027-4.743-3.935l-3.431-1.716-.807 3.835c-.303 1.211-.605 2.422-1.11 3.632-.504 1.211-.908 2.321-1.413 3.33-.908 1.918-1.917 3.936-3.027 5.752-.908 1.514-1.816 3.027-2.926 4.541-.706.908-1.413 1.816-2.321 2.522-.504.404-.908.808-1.514 1.11a5.88 5.88 0 0 1-2.623.606h-4.339c-.606-.101-1.312-.101-2.018-.202H336.322c-.303-.101-.707-.101-1.009-.101l-.505-.101c-.505 0-.908-.101-1.413-.101a35.984 35.984 0 0 0-4.641-.302l-3.835-.101.908 3.733c.404 1.716 1.009 3.33 1.716 4.945.706 1.513 1.614 3.027 2.623 4.44l.303.403c.404.505.807 1.009 1.312 1.615.504.605 1.211 1.211 1.816 1.816l.202.202c.303.202.505.504.807.706l2.119 1.514.606.403 1.211.707a16.5 16.5 0 0 0 2.32 1.11l.505.202c.807.302 1.614.605 2.422.706l.504.101c.908.202 1.917.403 2.826.403h3.43a21.535 21.535 0 0 0 3.532-.605h.101c.505-.101 1.11-.303 1.615-.505l.908-.302.202-.101.605-.303.101-.101a32.65 32.65 0 0 0 3.229-1.715l.303-.202c.403-.303.807-.505 1.211-.908.403-.303.807-.707 1.311-1.009 3.128-2.826 5.55-6.357 6.963-10.293a27.764 27.764 0 0 0 1.816-10.696c-.101-3.532-.807-7.063-2.22-10.393ZM333.597 216.445l-6.559-.707 3.633 5.449c.605 1.11 2.422 7.568-.606 12.109-3.632 5.449-13.017 5.247-20.181 4.137l-2.321-.403-.908 2.119c-3.027 6.659-9.081 10.797-15.035 10.292-5.55-.404-9.889-4.642-11.907-11.705l-4.036-14.127-1.917 14.531c-1.514 11.806 2.825 17.86 6.76 20.887 3.532 2.624 7.871 3.936 12.21 3.835 3.431 0 6.761-.707 9.99-2.018 5.751-2.422 9.889-6.559 11.604-11.504 13.017 1.816 21.796.101 26.337-4.944 4.944-5.55 6.861-13.623 4.54-19.576-1.614-4.844-5.751-7.77-11.604-8.375ZM176.587 337.734c3.027-3.733 4.54-8.577 4.137-13.319-.505-4.743-2.624-9.284-6.055-12.614-.605-.605-1.211-1.11-1.816-1.614 1.009-.908 2.018-2.018 2.926-3.128 1.817-2.22 3.128-4.743 3.835-7.467a12.6 12.6 0 0 0-.404-8.376c-1.11-2.623-3.229-4.742-5.852-6.054a18.37 18.37 0 0 0-3.936-1.413 27.328 27.328 0 0 0-4.137-.605c-5.55-.202-11.1.404-16.448 1.917l-2.421.606 2.522.101c4.137.1 8.375.605 12.412 1.412a31.196 31.196 0 0 1 5.953 1.816c.908.404 1.816.909 2.624 1.514.807.606 1.412 1.413 1.917 2.321.303.706.404 1.514.303 2.321-.101.807-.404 1.513-.808 2.22-.807 1.412-1.816 2.724-3.027 3.733-2.522 2.119-5.55 3.532-8.779 4.037l-19.979 2.623-1.211.101 1.11.404 20.585 7.971c1.614.707 3.128 1.817 4.44 3.027.605.606 1.211 1.312 1.614 2.12.505.807.808 1.614 1.009 2.522a5.476 5.476 0 0 1-1.513 4.844c-.606.605-1.312 1.211-2.119 1.614-.808.404-1.615.807-2.523 1.11-1.715.707-3.431 1.11-5.247 1.413-1.816.202-3.633.403-5.449.504-1.816.101-3.633.202-5.55.303-1.917.101-3.633.101-5.55.101-1.917 0-3.632-.101-5.55-.303-1.816-.101-3.632-.403-5.449-.807a22.293 22.293 0 0 1-5.146-1.816c-1.614-.808-2.926-2.119-3.632-3.835a11.042 11.042 0 0 1-.606-2.623c0-.908 0-1.817.101-2.725.202-1.816.605-3.632 1.11-5.348.505-1.715 1.11-3.532 1.816-5.146.707-1.715 1.514-3.33 2.321-5.045 1.615-3.33 3.431-6.458 5.449-9.587l2.926-4.641 1.514-2.321 1.514-2.321a365.56 365.56 0 0 1 13.017-17.86l13.622-17.255.101-.101h-.101l-.101.101c-7.669 5.146-15.035 10.797-21.796 17.053-3.431 3.128-6.761 6.357-9.99 9.788a153.065 153.065 0 0 0-9.283 10.494c-2.926 3.633-5.651 7.467-8.173 11.402-2.523 3.936-4.642 8.174-6.156 12.614-.807 2.22-1.412 4.541-1.715 6.861-.404 2.321-.505 4.743-.202 7.064.404 4.743 2.523 9.283 5.853 12.714 3.43 3.229 7.669 5.651 12.31 6.862 4.541 1.211 9.183 1.917 13.925 2.018 4.642.101 9.385 0 14.026-.505a53.277 53.277 0 0 0 13.825-2.724c2.22-.807 4.339-1.917 6.357-3.229 2.321-1.413 4.036-3.027 5.55-4.844ZM143.388 156.102c1.009.404 1.817.707 2.624 1.11.706.303 1.312.707 1.917 1.11l21.493 14.733-6.458-24.319c-.101-.302-.202-.706-.303-1.11l-.201-.504-.101-.303-1.817.807 1.817-.908c-.202-.403-.404-1.009-.606-1.312-.202-.302-.403-.807-.605-1.11l-.505-.908c-.706-1.11-1.412-2.22-2.119-3.229-1.312-1.917-2.825-3.733-4.238-5.55-1.715-2.119-3.128-3.632-4.44-5.045-1.614-1.715-3.128-3.229-4.641-4.743a139.261 139.261 0 0 0-9.889-8.98l-2.624-2.119-2.623-1.917c-1.817-1.312-3.734-2.624-5.752-3.734l-.202-.101c-1.11-.706-2.624-.303-3.33.807-.605.908-.403 2.22.303 3.028 2.825 3.027 5.651 6.256 8.375 9.485l1.312 1.614c2.22 2.725 4.541 5.55 6.66 8.375 2.321 3.028 5.045 6.559 7.568 10.192a36.9 36.9 0 0 1 1.715 2.523 39.316 39.316 0 0 0-6.761-1.817c-2.926-.605-5.953-.605-8.879-.101-1.817.404-3.532 1.211-4.844 2.523-1.413 1.413-2.22 3.33-2.321 5.348a13.322 13.322 0 0 0 .606 4.844c.403 1.412 1.009 2.724 1.614 4.036a49.381 49.381 0 0 0 4.238 6.963c2.523 3.43 5.247 6.861 8.073 9.989-.606.404-1.11.908-1.615 1.312-1.513 1.211-2.825 2.523-3.935 4.036-1.312 1.716-2.119 3.633-2.523 5.651-.302 1.917-.101 3.935.404 5.853.202 1.11 1.211 1.816 2.321 1.917h.101c1.311 0 2.421-1.11 2.421-2.422l.101-1.211c0-.302.101-.504.101-.706l.101-.303c.101-.303.101-.504.202-.807 0-.101.101-.303.101-.404 0-.101.101-.302.202-.504a7.456 7.456 0 0 1 2.018-2.321c1.009-.807 2.22-1.514 3.33-2.119l4.238-2.119 5.852-3.027-4.44-6.66c-2.724-4.036-5.549-8.375-7.87-12.513a44.779 44.779 0 0 1-2.422-4.944l.605.101a25.9 25.9 0 0 1 5.651 1.513Z"/>
    <path d="M256 0C114.63 0 0 114.63 0 256c-.1 73.662 31.685 143.792 87.083 192.328l.1-.303c1.211.707 2.826.202 3.532-1.009.303-.504.404-1.11.303-1.715C89.706 437.935 89 430.468 89 423c-.101-6.559.202-13.723.807-22.603.404-6.861 1.01-13.925 1.615-20.686.706-8.173 1.412-16.649 1.917-24.923.807-13.623 1.312-29.768-.707-46.216-.403-3.834-1.11-7.669-1.917-11.503l.202-1.009c.807-3.734 1.816-7.871 3.027-12.613 1.211-4.743 2.422-8.678 3.633-12.412a97.241 97.241 0 0 1 4.642-11.705c1.513-3.532 3.632-6.862 6.256-9.687.908-1.009 2.119-1.816 3.33-2.422a4.503 4.503 0 0 1 2.825 0 10.243 10.243 0 0 1 3.532 2.321 22.013 22.013 0 0 1 3.431 4.036c1.009 1.514 2.018 3.128 2.825 4.844.807 1.614 1.413 3.33 1.917 5.045l3.431 13.622 7.871-12.007c1.614-2.422 3.33-4.743 5.247-6.862a38.916 38.916 0 0 1 6.054-5.449c2.019-1.514 4.339-2.624 6.66-3.431 2.018-.706 4.238-.807 6.357-.504 1.615.201 3.128 1.009 4.238 2.22.909 1.009 1.312 2.32 1.211 3.733a11.943 11.943 0 0 1-2.018 5.449c-1.413 2.119-3.128 3.935-5.146 5.55l-15.237 13.017 20.08-.202c3.431 0 6.761.807 9.788 2.422 3.028 1.614 5.651 3.935 7.467 6.761a16.354 16.354 0 0 1 2.927 8.879 10.32 10.32 0 0 1-3.027 7.266l-4.945 4.843 4.642 4.844a15.587 15.587 0 0 1 4.339 7.467c.504 2.724.101 5.449-1.11 7.971a33.498 33.498 0 0 1-5.954 8.577 125.71 125.71 0 0 1-4.036 4.239c-.706.605-1.312 1.311-2.018 1.917-.706.605-1.615 1.614-2.523 2.422l-3.229 3.228 2.22 4.138.101.201.101.101.101.202.101.303.303.605.201.404c.303.807.707 1.615 1.009 2.523.606 1.715 1.211 3.531 1.817 5.348 1.11 3.632 2.22 7.366 3.33 11.099 1.917 6.761 3.834 14.127 5.852 22.604 1.615 6.659 3.229 13.925 5.146 22.804.606 2.725 1.11 5.55 1.615 8.275l.605 3.229c.606 3.229 1.211 6.458 1.716 9.687l.303 1.917 3.027-.303c0-3.431-.101-7.164-.404-11.806a328.218 328.218 0 0 0-.807-11.806 452.273 452.273 0 0 0-2.725-23.511c-1.311-8.981-2.623-16.448-4.036-23.41-.807-3.936-1.614-7.871-2.623-11.706-.505-2.119-1.009-4.036-1.615-5.953-.202-.706-.404-1.312-.605-1.917l1.614-1.413a102.96 102.96 0 0 0 4.844-4.541c3.43-3.431 6.357-7.265 8.678-11.604a29.38 29.38 0 0 0 2.623-7.77c.505-2.825.505-5.752 0-8.678a24.733 24.733 0 0 0-2.926-7.871c-.303-.504-.606-1.009-.908-1.412.605-1.009 1.11-2.018 1.614-3.027 1.312-3.028 2.018-6.156 2.018-9.486 0-6.054-1.816-11.907-5.247-16.851-3.229-4.844-7.568-8.779-12.714-11.604a18.82 18.82 0 0 0-3.229-1.514 23.227 23.227 0 0 0 2.018-4.238c.807-2.22 1.312-4.541 1.413-6.862.101-2.522-.303-5.045-1.11-7.467-.908-2.421-2.22-4.641-3.936-6.559a21.346 21.346 0 0 0-5.953-4.44c-2.119-1.009-4.339-1.715-6.66-2.018-4.238-.605-8.678-.101-12.714 1.312a37.124 37.124 0 0 0-10.393 5.651 54.4 54.4 0 0 0-7.77 7.467c-.707-1.009-1.312-1.917-2.018-2.926-1.615-2.119-3.431-3.936-5.348-5.651-2.22-1.917-4.945-3.431-7.77-4.238-3.33-.908-6.963-.706-10.091.807-2.623 1.312-5.045 3.128-6.862 5.449-1.614 1.917-3.027 4.137-4.137 6.357-1.11 2.119-2.22 4.238-3.027 6.458a136.125 136.125 0 0 0-6.256 26.236c-.101.807-.202 1.614-.303 2.523-2.119-6.358-4.944-12.412-8.476-18.063 3.834-3.733 7.063-8.072 9.485-12.815a78.632 78.632 0 0 0 6.56-16.952c2.724-10.091 4.338-21.291 5.145-35.317.606-10.293.707-21.191.404-35.419l-.303-14.227c-.202-6.862-.403-13.926-.403-20.888 0-5.55 0-11.504.302-17.356.202-5.651.909-11.302 2.22-16.852a26.139 26.139 0 0 1 2.927-7.164c.605-.908 1.311-1.715 2.22-2.422.807-.605 1.816-1.009 2.825-1.311 2.523-.505 5.045-.404 7.467.201a50.852 50.852 0 0 1 7.871 2.422 128.478 128.478 0 0 1 15.539 7.366c4.44 2.422 9.082 5.147 15.035 8.779 4.541 2.826 9.082 5.651 13.522 8.476 5.348 3.33 10.797 6.761 16.347 10.091l1.513.908 1.514-.807c3.431-2.018 6.862-3.835 10.091-5.55 1.715 2.119 3.43 4.238 5.146 6.256 1.413 1.716 2.926 3.532 4.339 5.247.908 1.11 1.917 2.22 2.926 3.633l1.211 1.413c.605.706 1.11 1.412 1.715 2.119 1.918 2.321 3.835 4.642 5.651 7.063.908 1.11 1.615 2.321 2.422 3.633l2.119 3.834c.303.606.706 1.211 1.11 1.817.404.605.605.908.908 1.311l.303.303c.807 1.11 1.816 2.018 2.825 2.926 2.119 1.817 4.339 3.532 6.66 5.046l1.514 1.009c2.018 1.312 4.339 2.926 7.265 4.742.908.606 2.119.303 2.724-.605a16.123 16.123 0 0 0 2.422-5.953c.404-2.019.606-4.037.505-6.156 0-1.009-.202-1.917-.303-2.926-.101-.505-.101-1.009-.303-1.413-.202-.403-.202-.807-.302-1.11l-.101-.302c-.303-1.11-.606-2.019-.908-2.725-.303-.706-.707-1.715-1.11-2.623-.808-1.716-1.817-3.229-2.927-4.642-.605-.707-1.211-1.413-1.917-2.018-.605-.606-1.312-1.11-2.018-1.716a109.031 109.031 0 0 0-4.339-2.926c-1.413-.908-2.926-1.917-4.137-2.825-.908-.707-1.917-1.312-2.927-2.019l-1.21-.807c-.909-.605-1.817-1.11-2.624-1.715l-1.514-.908a145.857 145.857 0 0 0-8.476-4.743l-4.339-2.22-1.11-.504c-1.11-.505-2.22-1.01-3.229-1.514-.807-.404-1.614-.706-2.421-1.11 2.926-1.413 5.751-2.825 8.577-4.036 8.274-3.734 16.851-6.862 25.63-9.284a94.267 94.267 0 0 1 2.523-.605c.807.303 1.614.706 2.32 1.009l2.22.908.908.404c.505.202 1.01.403 1.413.605l2.321 1.11c.605.303 1.211.606 1.917.908l.808.404c.605.303 1.311.605 1.917 1.009l4.44 2.422 1.009.605c2.522 1.514 4.944 3.027 7.164 4.743l.706.504 1.211.908 1.817 1.514.605.505c.404.302.807.605 1.11.908l1.615 1.614.504.404c.404.303.807.706 1.11 1.11.505.605.908 1.211 1.312 1.816l.403.505c.303.403.606.807.808 1.211.403.605.706 1.311 1.11 1.816 1.311 2.422 3.027 4.541 5.045 6.458l.706.706 1.009 1.009.505.505.404.303.201.302.101.101c.505.505 1.009.908 1.514 1.413.504.504 1.211 1.11 1.816 1.715.202.202.505.505.807.707.303.202.707.605 1.11 1.009l1.615 1.614 1.312 1.211c.302.404.706.706 1.009 1.11.807.807 1.614 1.514 2.422 2.321l.201.202c.808.605 2.018.403 2.725-.404a15.036 15.036 0 0 0 1.816-3.027c.303-.505.505-1.009.706-1.615.101-.403.303-.807.404-1.11l.101-.504c.303-1.11.605-2.119.807-3.229.101-.505.202-1.11.202-1.715v-.404c0-.404.101-.807.101-1.211.101-2.22-.101-4.44-.505-6.66l-.201-.807-.202-.807-.303-.908-.404-1.312a68.158 68.158 0 0 0-.908-2.523 77.942 77.942 0 0 0-1.513-2.926c-.303-.505-.606-.908-.908-1.413-.303-.404-.606-.908-1.01-1.312-1.412-1.715-3.027-3.229-4.742-4.44-.908-.605-1.716-1.21-2.624-1.816-.605-.404-1.211-.706-1.816-1.009l-1.009-.505-2.725-1.513-5.348-2.725a15.595 15.595 0 0 0-1.917-.807l-.908-.403-2.724-1.11c-.606-.202-1.211-.505-1.817-.606l-.908-.303-3.229-1.009-.908-.302-1.413-.303c-1.917-.404-3.632-.807-5.55-1.11l-3.531-.404c1.816-.1 3.632-.1 5.549-.1 4.339.1 8.779.706 13.017 1.917 4.138 1.11 8.174 2.926 11.807 5.247 1.21.706 2.825.302 3.531-.908.606-1.11.404-2.422-.504-3.33l-.505-.303c-7.164-5.55-16.75-9.082-27.043-9.99-4.742-.403-9.384-.504-14.127-.1.101-1.413.303-2.927.606-4.34.807-3.33 1.917-6.559 3.531-9.586 3.129-6.155 7.165-11.806 11.907-16.851 2.321-2.523 4.743-4.945 7.367-7.266 1.21-1.11 2.522-2.118 3.935-3.228.807-.606 1.614-1.211 2.523-1.716a47.964 47.964 0 0 1 3.128 1.715c2.825 1.817 5.751 3.936 8.577 5.954 5.348 4.036 10.898 8.577 16.548 13.42 5.954 5.147 11.1 9.89 15.742 14.43 5.045 4.844 9.788 10.09 14.329 15.439 2.22 2.623 4.238 5.348 6.155 8.173 1.715 2.422 3.128 5.046 4.137 7.871l5.449 16.65 8.073-15.439c.605-1.211 1.311-2.422 2.119-3.431.201.303.302.706.504 1.009 1.211 2.826 2.018 5.752 2.624 8.779.605 3.027.807 6.054.807 9.183-.101 3.128-.404 6.256-1.009 9.283l-1.009 5.146 4.541 2.523c.807.605 1.614 1.211 2.22 2.018a39.185 39.185 0 0 1 2.825 3.532c1.917 2.623 3.834 5.55 5.55 8.375 1.413 2.22 2.825 4.44 4.137 6.761 2.321 3.733 4.642 7.568 7.063 11.301 2.22 3.431 4.339 6.357 6.257 9.082 2.321 3.128 4.742 6.054 7.467 8.779 2.926 3.229 6.357 5.852 10.191 7.971 1.615.808 3.33 1.514 5.147 1.918-.808 5.65-1.615 11.402-2.422 17.053v.202l-.908 6.054c-.202 1.009-.303 2.018-.505 3.027-.101.505-.202.908-.303 1.312l-.101.303v.202c-.1.1-.1.302-.201.504l-.303 1.211c-.202 1.211 0 2.523.404 3.633l1.009 1.816.101.101a6.65 6.65 0 0 0 2.32 2.119c.707.403 1.514.807 2.22 1.009.707.202 1.312.404 2.018.605l.808.202 1.312.303c-.101.504-.303 1.11-.404 1.513-.404 1.716-.908 3.532-1.615 5.853a226.355 226.355 0 0 1-3.935 11.705c-1.614 4.339-3.128 7.972-4.642 11.201-.807 1.715-1.715 3.33-2.623 4.843-.404.606-5.651 8.779-5.651 8.779l.101.707c.101.504.202 1.311.303 2.22.101.908.201 1.614.201 2.522.101 1.917.202 3.532.202 5.146 0 1.413 0 2.826-.202 4.238-1.21.808-2.623 1.615-3.935 2.321l-4.743 2.826c-3.329 1.917-6.458 3.733-9.787 5.751l-1.716 1.009c-1.11.606-2.22 1.312-3.33 2.019-.908.605-1.917 1.311-2.724 2.018-.606.504-1.11 1.009-1.615 1.513-.403.404-.807.909-1.211 1.413l-.908 1.514c-.202.504-.403 1.009-.504 1.614v.303c-.101.303-.101.706-.101 1.009v1.715l.202 1.211c.1.303.201.505.201.908l3.229 9.586a5044.993 5044.993 0 0 0 7.568 21.09l1.514 4.036c2.018 5.55 4.137 11.302 6.256 16.953 2.624 6.962 5.348 13.925 7.972 20.887 2.522 6.66 5.348 13.723 8.173 20.787 1.413 3.431 2.927 6.862 4.339 10.292.707 1.716 1.514 3.431 2.22 5.147.807 1.816 1.615 3.531 2.624 5.146l1.009-.505.101.404.908 1.211c54.893-48.536 86.275-118.263 86.275-191.622C512 114.63 397.37 0 256 0Z"/>
  </g>
  <defs>
    <clipPath id="a">
      <path fill="#fff" d="M0 0h512v512H0z"/>
    </clipPath>
  </defs>
</svg>